<svg width="17" height="13" viewBox="0 0 17 13" fill="none" xmlns="http://www.w3.org/2000/svg">
<path d="M16.499 0.909577C16.8068 1.18283 16.9864 1.55968 16.9984 1.95728C17.0104 2.35487 16.8537 2.74066 16.5629 3.02982L7.51018 12.0309C7.36346 12.1765 7.18715 12.293 6.99167 12.3736C6.79618 12.4541 6.58548 12.4971 6.37203 12.4999C6.15857 12.5027 5.94668 12.4652 5.74888 12.3898C5.55107 12.3144 5.37137 12.2026 5.22038 12.0609L0.427784 7.56034C0.145596 7.27596 -0.00802992 6.89983 -0.000727673 6.51118C0.00657458 6.12253 0.174235 5.75172 0.46693 5.47686C0.759626 5.202 1.1545 5.04456 1.56837 5.0377C1.98224 5.03085 2.38279 5.17511 2.68563 5.4401L6.31736 8.84849L14.2411 0.969584C14.5321 0.680545 14.9334 0.511854 15.3568 0.500601C15.7802 0.489348 16.191 0.636455 16.499 0.909577Z" fill="#185CFF"/>
</svg>
