<svg width="24" height="24" viewBox="0 0 24 24" fill="none" xmlns="http://www.w3.org/2000/svg">
<path d="M12.0005 0.480026C5.63807 0.480026 0.480469 5.63763 0.480469 12C0.480469 18.3624 5.63807 23.52 12.0005 23.52C18.3629 23.52 23.5205 18.3624 23.5205 12C23.5205 5.63763 18.3629 0.480026 12.0005 0.480026ZM9.18047 16.7748H6.84767V9.26763H9.18047V16.7748ZM7.99967 8.34603C7.26287 8.34603 6.78647 7.82403 6.78647 7.17843C6.78647 6.51963 7.27727 6.01323 8.02967 6.01323C8.78207 6.01323 9.24287 6.51963 9.25727 7.17843C9.25727 7.82403 8.78207 8.34603 7.99967 8.34603ZM17.7005 16.7748H15.3677V12.6144C15.3677 11.646 15.0293 10.9884 14.1857 10.9884C13.5413 10.9884 13.1585 11.4336 12.9893 11.862C12.9269 12.0144 12.9113 12.2304 12.9113 12.4452V16.7736H10.5773V11.6616C10.5773 10.7244 10.5473 9.94083 10.5161 9.26643H12.5429L12.6497 10.3092H12.6965C13.0037 9.81963 13.7561 9.09723 15.0149 9.09723C16.5497 9.09723 17.7005 10.1256 17.7005 12.336V16.7748Z" fill="#9497A1"/>
</svg>
