<svg width="24" height="25" viewBox="0 0 24 25" fill="none" xmlns="http://www.w3.org/2000/svg">
<path d="M10.6875 8.49036C10.5164 8.39159 10.3224 8.3396 10.1248 8.33963C9.92728 8.33967 9.73323 8.39171 9.56219 8.49054C9.39115 8.58936 9.24914 8.73148 9.15045 8.9026C9.05176 9.07372 8.99987 9.26782 9 9.46536V15.9649C8.99987 16.1624 9.05176 16.3565 9.15045 16.5276C9.24914 16.6987 9.39115 16.8409 9.56219 16.9397C9.73323 17.0385 9.92728 17.0905 10.1248 17.0906C10.3224 17.0906 10.5164 17.0386 10.6875 16.9399L16.875 13.3639C16.989 13.298 17.0837 13.2033 17.1495 13.0893C17.2153 12.9753 17.25 12.846 17.25 12.7144C17.25 12.5827 17.2153 12.4534 17.1495 12.3394C17.0837 12.2254 16.989 12.1307 16.875 12.0649L10.6875 8.49036ZM0 12.7144C0 9.53176 1.26428 6.47951 3.51472 4.22907C5.76516 1.97864 8.8174 0.714355 12 0.714355C15.1826 0.714355 18.2348 1.97864 20.4853 4.22907C22.7357 6.47951 24 9.53176 24 12.7144C24 15.897 22.7357 18.9492 20.4853 21.1996C18.2348 23.4501 15.1826 24.7144 12 24.7144C8.8174 24.7144 5.76516 23.4501 3.51472 21.1996C1.26428 18.9492 0 15.897 0 12.7144V12.7144ZM12 2.21436C10.6211 2.21436 9.25574 2.48595 7.98182 3.01362C6.70791 3.54129 5.55039 4.31472 4.57538 5.28973C3.60036 6.26475 2.82694 7.42226 2.29926 8.69618C1.77159 9.9701 1.5 11.3355 1.5 12.7144C1.5 14.0932 1.77159 15.4586 2.29926 16.7325C2.82694 18.0065 3.60036 19.164 4.57538 20.139C5.55039 21.114 6.70791 21.8874 7.98182 22.4151C9.25574 22.9428 10.6211 23.2144 12 23.2144C14.7848 23.2144 17.4555 22.1081 19.4246 20.139C21.3938 18.1698 22.5 15.4991 22.5 12.7144C22.5 9.92958 21.3938 7.25887 19.4246 5.28973C17.4555 3.3206 14.7848 2.21436 12 2.21436Z" fill="white"/>
</svg>
