<svg width="22" height="13" viewBox="0 0 22 13" fill="none" xmlns="http://www.w3.org/2000/svg">
<path d="M0.5 6.37502C0.499678 6.20584 0.536916 6.0387 0.609028 5.88565C0.68114 5.73261 0.786328 5.59748 0.917 5.49002L5.336 1.08002C5.54694 0.869345 5.83287 0.751011 6.131 0.751011C6.42913 0.751011 6.71506 0.869345 6.926 1.08002C7.03023 1.18421 7.1129 1.30792 7.16931 1.44407C7.22572 1.58022 7.25475 1.72615 7.25475 1.87352C7.25475 2.02089 7.22572 2.16682 7.16931 2.30297C7.1129 2.43912 7.03023 2.56283 6.926 2.66702L4.349 5.25002L20.375 5.25002C20.6734 5.25002 20.9595 5.36855 21.1705 5.57953C21.3815 5.79051 21.5 6.07665 21.5 6.37502C21.5 6.67339 21.3815 6.95954 21.1705 7.17052C20.9595 7.38149 20.6734 7.50002 20.375 7.50002L4.334 7.50002L6.9335 10.083C7.03795 10.1872 7.12082 10.311 7.17736 10.4473C7.2339 10.5836 7.263 10.7297 7.263 10.8773C7.263 11.0248 7.2339 11.1709 7.17736 11.3072C7.12082 11.4435 7.03795 11.5673 6.9335 11.6715C6.82902 11.7761 6.70497 11.859 6.56844 11.9156C6.4319 11.9722 6.28555 12.0013 6.13775 12.0013C5.98995 12.0013 5.8436 11.9722 5.70706 11.9156C5.57053 11.859 5.44647 11.7761 5.342 11.6715L0.829999 7.16552C0.72469 7.0627 0.641192 6.9397 0.584492 6.80388C0.527792 6.66806 0.499056 6.5222 0.5 6.37502V6.37502Z" fill="#002B4E"/>
</svg>
