<svg width="22" height="13" viewBox="0 0 22 13" fill="none" xmlns="http://www.w3.org/2000/svg">
<path d="M21.5 6.37502C21.5003 6.20584 21.4631 6.0387 21.391 5.88565C21.3189 5.73261 21.2137 5.59748 21.083 5.49002L16.664 1.08002C16.4531 0.869346 16.1671 0.751011 15.869 0.751011C15.5709 0.751011 15.2849 0.869346 15.074 1.08002C14.9698 1.18421 14.8871 1.30792 14.8307 1.44407C14.7743 1.58022 14.7452 1.72615 14.7452 1.87352C14.7452 2.02089 14.7743 2.16682 14.8307 2.30298C14.8871 2.43913 14.9698 2.56283 15.074 2.66702L17.651 5.25002L1.625 5.25002C1.32663 5.25002 1.04048 5.36855 0.829504 5.57953C0.618526 5.79051 0.5 6.07665 0.5 6.37502C0.5 6.67339 0.618526 6.95954 0.829505 7.17052C1.04048 7.38149 1.32663 7.50002 1.625 7.50002L17.666 7.50002L15.0665 10.083C14.9621 10.1872 14.8792 10.311 14.8226 10.4473C14.7661 10.5836 14.737 10.7297 14.737 10.8773C14.737 11.0248 14.7661 11.1709 14.8226 11.3072C14.8792 11.4435 14.9621 11.5673 15.0665 11.6715C15.171 11.7761 15.295 11.859 15.4316 11.9156C15.5681 11.9722 15.7145 12.0013 15.8622 12.0013C16.01 12.0013 16.1564 11.9722 16.2929 11.9156C16.4295 11.859 16.5535 11.7761 16.658 11.6715L21.17 7.16552C21.2753 7.0627 21.3588 6.9397 21.4155 6.80388C21.4722 6.66806 21.5009 6.5222 21.5 6.37502Z" fill="#002B4E"/>
</svg>
