<svg width="70" height="70" viewBox="0 0 70 70" fill="none" xmlns="http://www.w3.org/2000/svg">
<path d="M20.2993 19.2269C20.2962 18.9485 20.1827 18.6826 19.9836 18.4878C19.7845 18.2931 19.5162 18.1854 19.2377 18.1885C18.9593 18.1915 18.6934 18.3051 18.4987 18.5042C18.3039 18.7033 18.1962 18.9716 18.1993 19.25V50.75C18.1993 51.0285 18.3099 51.2956 18.5068 51.4925C18.7037 51.6894 18.9708 51.8 19.2493 51.8H50.7493C51.0278 51.8 51.2948 51.6894 51.4917 51.4925C51.6887 51.2956 51.7993 51.0285 51.7993 50.75C51.7993 50.4715 51.6887 50.2045 51.4917 50.0076C51.2948 49.8107 51.0278 49.7 50.7493 49.7H20.2993V19.2269ZM47.5993 47.6V25.55C47.599 25.3525 47.543 25.159 47.4377 24.9918C47.3323 24.8246 47.182 24.6906 47.0039 24.605C46.8258 24.5195 46.6272 24.4859 46.4308 24.5082C46.2345 24.5305 46.0485 24.6077 45.8941 24.731L35.9506 32.6837L29.2201 28.8386C29.0773 28.7572 28.9175 28.7104 28.7533 28.702C28.5892 28.6936 28.4254 28.7239 28.2751 28.7903L22.3993 31.4006V47.6H47.5993Z" fill="#185CFF"/>
<rect x="0.5" y="0.5" width="69" height="69" rx="11.5" stroke="#F1F6FA"/>
</svg>
