<svg width="70" height="70" viewBox="0 0 70 70" fill="none" xmlns="http://www.w3.org/2000/svg">
<path d="M45.0686 38.5C45.5856 38.5 46.0977 38.6018 46.5754 38.7997C47.0531 38.9976 47.4872 39.2876 47.8528 39.6533C48.2184 40.0189 48.5085 40.453 48.7063 40.9307C48.9042 41.4084 49.0061 41.9204 49.0061 42.4375V44.0195C49.0063 44.9655 48.802 45.9003 48.4072 46.7599C48.0125 47.6196 47.4365 48.3837 46.7188 49C43.9801 51.352 40.0583 52.5 35.0008 52.5C29.9433 52.5 26.0268 51.352 23.2933 49C22.5766 48.3841 22.0014 47.6208 21.6069 46.7621C21.2125 45.9034 21.0081 44.9697 21.0078 44.0247V42.4358C21.0083 41.3918 21.4233 40.3907 22.1617 39.6526C22.9001 38.9146 23.9013 38.5 24.9453 38.5H45.0703H45.0686ZM34.8258 17.5105L35.0008 17.5C35.318 17.5 35.6244 17.6149 35.8634 17.8233C36.1025 18.0318 36.2579 18.3198 36.3011 18.634L36.3133 18.8125L36.3116 20.1233H42.4366C43.4809 20.1233 44.4824 20.5381 45.2208 21.2765C45.9592 22.0149 46.3741 23.0165 46.3741 24.0608V31.9445C46.3741 32.9888 45.9592 33.9903 45.2208 34.7287C44.4824 35.4672 43.4809 35.882 42.4366 35.882H27.5616C26.5173 35.882 25.5158 35.4672 24.7773 34.7287C24.0389 33.9903 23.6241 32.9888 23.6241 31.9445V24.0625C23.6241 23.5453 23.726 23.0331 23.924 22.5553C24.1219 22.0774 24.4121 21.6433 24.7779 21.2776C25.1438 20.912 25.578 20.622 26.056 20.4242C26.5339 20.2264 27.0461 20.1248 27.5633 20.125L33.6883 20.1233V18.8125C33.6884 18.4951 33.8035 18.1884 34.0123 17.9494C34.2211 17.7103 34.5095 17.555 34.8241 17.5122L35.0008 17.5L34.8223 17.5122L34.8258 17.5105ZM31.0616 25.375C30.7672 25.3632 30.4734 25.411 30.198 25.5156C29.9225 25.6201 29.671 25.7792 29.4585 25.9833C29.2461 26.1875 29.077 26.4324 28.9616 26.7035C28.8461 26.9745 28.7866 27.2661 28.7866 27.5608C28.7866 27.8554 28.8461 28.147 28.9616 28.418C29.077 28.6891 29.2461 28.934 29.4585 29.1382C29.671 29.3423 29.9225 29.5014 30.198 29.6059C30.4734 29.7105 30.7672 29.7583 31.0616 29.7465C31.6261 29.7239 32.16 29.4837 32.5515 29.0763C32.943 28.6689 33.1616 28.1258 33.1616 27.5608C33.1616 26.9957 32.943 26.4526 32.5515 26.0452C32.16 25.6378 31.6261 25.3976 31.0616 25.375ZM38.9243 25.375C38.6299 25.3632 38.3362 25.411 38.0607 25.5156C37.7852 25.6201 37.5337 25.7792 37.3213 25.9833C37.1088 26.1875 36.9398 26.4324 36.8243 26.7035C36.7088 26.9745 36.6493 27.2661 36.6493 27.5608C36.6493 27.8554 36.7088 28.147 36.8243 28.418C36.9398 28.6891 37.1088 28.934 37.3213 29.1382C37.5337 29.3423 37.7852 29.5014 38.0607 29.6059C38.3362 29.7105 38.6299 29.7583 38.9243 29.7465C39.4889 29.7239 40.0228 29.4837 40.4143 29.0763C40.8057 28.6689 41.0243 28.1258 41.0243 27.5608C41.0243 26.9957 40.8057 26.4526 40.4143 26.0452C40.0228 25.6378 39.4889 25.3976 38.9243 25.375Z" fill="#185CFF"/>
<rect x="0.5" y="0.5" width="69" height="69" rx="11.5" stroke="#F1F6FA"/>
</svg>
