<svg width="70" height="70" viewBox="0 0 70 70" fill="none" xmlns="http://www.w3.org/2000/svg">
<path d="M26.8722 19.8655C28.3044 18.7809 30.0527 18.1959 31.8492 18.2002C32.3532 18.2002 32.7543 18.4627 32.9874 18.6433C33.2478 18.8491 33.4914 19.1116 33.7098 19.3741C33.8647 19.5622 33.9493 19.7983 33.9492 20.0419V27.6502H31.6707C31.423 26.9496 30.9356 26.3592 30.2947 25.9832C29.6538 25.6072 28.9006 25.4699 28.1682 25.5956C27.4358 25.7212 26.7715 26.1018 26.2925 26.6699C25.8136 27.238 25.5509 27.9571 25.5509 28.7002C25.5509 29.4433 25.8136 30.1624 26.2925 30.7306C26.7715 31.2987 27.4358 31.6792 28.1682 31.8049C28.9006 31.9305 29.6538 31.7932 30.2947 31.4172C30.9356 31.0413 31.423 30.4508 31.6707 29.7502H33.9492V49.5217C33.9493 49.6772 33.9149 49.8307 33.8484 49.9713C33.782 50.1118 33.6851 50.2359 33.5649 50.3344C32.5947 51.1282 31.2969 51.8002 29.7492 51.8002C27.2586 51.8002 25.4043 50.5444 24.2052 49.0429C23.3437 47.9731 22.7536 46.7108 22.4853 45.3637C21.6694 45.1462 20.9129 44.7478 20.2719 44.1982C19.1127 43.2049 18.1992 41.5942 18.1992 39.2002C18.1992 38.0305 18.2769 36.9742 18.4512 36.0502H25.0242C26.3598 36.0502 27.4602 37.0477 27.6282 38.3371C26.9299 38.5899 26.3433 39.0812 25.972 39.7244C25.6007 40.3677 25.4687 41.1214 25.5992 41.8525C25.7296 42.5837 26.1143 43.2452 26.6851 43.7203C27.2559 44.1954 27.9763 44.4535 28.719 44.4491C29.4617 44.4446 30.1789 44.1779 30.744 43.696C31.3091 43.2141 31.6858 42.5481 31.8076 41.8154C31.9293 41.0828 31.7882 40.3307 31.4093 39.692C31.0304 39.0532 30.438 38.5689 29.7366 38.3245C29.6481 37.1353 29.1132 36.0235 28.2392 35.2122C27.3652 34.4009 26.2167 33.9501 25.0242 33.9502H19.1253C19.4466 33.3244 19.8771 32.7952 20.4378 32.4193C20.5796 32.3254 20.7285 32.2426 20.883 32.1715C20.2866 30.4243 20.442 28.3789 21.0174 26.7724C21.3849 25.7392 21.9687 24.7627 22.7709 24.1117C23.3001 23.6812 23.9301 23.3977 24.6189 23.3431C24.9213 21.9088 25.7718 20.7223 26.8743 19.8655H26.8722ZM36.0492 44.4502H37.6242C38.8774 44.4502 40.0792 43.9524 40.9653 43.0663C41.8514 42.1802 42.3492 40.9784 42.3492 39.7252V35.8717C43.0498 35.624 43.6402 35.1366 44.0162 34.4957C44.3922 33.8548 44.5295 33.1016 44.4039 32.3692C44.2782 31.6368 43.8977 30.9725 43.3296 30.4935C42.7614 30.0146 42.0423 29.7519 41.2992 29.7519C40.5561 29.7519 39.837 30.0146 39.2689 30.4935C38.7008 30.9725 38.3202 31.6368 38.1946 32.3692C38.0689 33.1016 38.2062 33.8548 38.5822 34.4957C38.9582 35.1366 39.5486 35.624 40.2492 35.8717V39.7252C40.2492 41.1742 39.0732 42.3502 37.6242 42.3502H36.0492V20.0419C36.0491 19.7983 36.1338 19.5622 36.2886 19.3741C36.5049 19.1116 36.7506 18.8491 37.011 18.6433C37.242 18.4627 37.6431 18.2002 38.1492 18.2002C39.9457 18.1959 41.6941 18.7809 43.1262 19.8655C44.2287 20.7223 45.0792 21.9088 45.3795 23.3431C46.0683 23.3956 46.6983 23.6812 47.2275 24.1117C48.0297 24.7627 48.6135 25.7392 48.981 26.7724C49.5564 28.3789 49.7118 30.4264 49.1154 32.1694C49.2666 32.2408 49.4157 32.3248 49.5606 32.4214C50.1381 32.8057 50.577 33.3559 50.9004 34.0048C51.5367 35.2753 51.7992 37.0477 51.7992 39.2002C51.7992 41.5963 50.8857 43.2049 49.7265 44.1982C49.0855 44.7478 48.329 45.1462 47.5131 45.3637C47.3031 46.5355 46.7151 47.8921 45.7932 49.0429C44.5962 50.5444 42.7398 51.8002 40.2492 51.8002C38.7036 51.8002 37.4037 51.1282 36.4356 50.3344C36.315 50.2361 36.2178 50.1121 36.1509 49.9716C36.0841 49.831 36.0494 49.6774 36.0492 49.5217V44.4502ZM28.6992 27.6502C28.4207 27.6502 28.1537 27.7608 27.9568 27.9578C27.7598 28.1547 27.6492 28.4217 27.6492 28.7002C27.6492 28.9787 27.7598 29.2458 27.9568 29.4427C28.1537 29.6396 28.4207 29.7502 28.6992 29.7502C28.9777 29.7502 29.2448 29.6396 29.4417 29.4427C29.6386 29.2458 29.7492 28.9787 29.7492 28.7002C29.7492 28.4217 29.6386 28.1547 29.4417 27.9578C29.2448 27.7608 28.9777 27.6502 28.6992 27.6502ZM28.6992 40.2502C28.4207 40.2502 28.1537 40.3608 27.9568 40.5578C27.7598 40.7547 27.6492 41.0217 27.6492 41.3002C27.6492 41.5787 27.7598 41.8458 27.9568 42.0427C28.1537 42.2396 28.4207 42.3502 28.6992 42.3502C28.9777 42.3502 29.2448 42.2396 29.4417 42.0427C29.6386 41.8458 29.7492 41.5787 29.7492 41.3002C29.7492 41.0217 29.6386 40.7547 29.4417 40.5578C29.2448 40.3608 28.9777 40.2502 28.6992 40.2502ZM41.2992 33.9502C41.5777 33.9502 41.8448 33.8396 42.0417 33.6427C42.2386 33.4458 42.3492 33.1787 42.3492 32.9002C42.3492 32.6217 42.2386 32.3547 42.0417 32.1578C41.8448 31.9608 41.5777 31.8502 41.2992 31.8502C41.0207 31.8502 40.7537 31.9608 40.5568 32.1578C40.3598 32.3547 40.2492 32.6217 40.2492 32.9002C40.2492 33.1787 40.3598 33.4458 40.5568 33.6427C40.7537 33.8396 41.0207 33.9502 41.2992 33.9502Z" fill="#185CFF"/>
<rect x="0.5" y="0.5" width="69" height="69" rx="11.5" stroke="#F1F6FA"/>
</svg>
