<svg width="70" height="70" viewBox="0 0 70 70" fill="none" xmlns="http://www.w3.org/2000/svg">
<path d="M43.75 21C43.2859 21 42.8408 20.8156 42.5126 20.4874C42.1844 20.1592 42 19.7141 42 19.25C42 18.7859 42.1844 18.3408 42.5126 18.0126C42.8408 17.6844 43.2859 17.5 43.75 17.5H50.75C51.2141 17.5 51.6592 17.6844 51.9874 18.0126C52.3156 18.3408 52.5 18.7859 52.5 19.25V26.25C52.5 26.7141 52.3156 27.1592 51.9874 27.4874C51.6592 27.8156 51.2141 28 50.75 28C50.2859 28 49.8408 27.8156 49.5126 27.4874C49.1844 27.1592 49 26.7141 49 26.25V23.4745L38.8622 33.6122C38.5341 33.9403 38.089 34.1246 37.625 34.1246C37.161 34.1246 36.7159 33.9403 36.3878 33.6122L31.5 28.7245L22.2372 37.9872C21.9072 38.306 21.4651 38.4824 21.0063 38.4784C20.5475 38.4744 20.1085 38.2904 19.7841 37.9659C19.4596 37.6415 19.2756 37.2025 19.2716 36.7437C19.2676 36.2849 19.444 35.8428 19.7627 35.5128L30.2628 25.0128C30.5909 24.6847 31.036 24.5004 31.5 24.5004C31.964 24.5004 32.4091 24.6847 32.7372 25.0128L37.625 29.9005L46.5255 21H43.75ZM22.75 45.5V50.75C22.75 51.2141 22.5656 51.6592 22.2374 51.9874C21.9092 52.3156 21.4641 52.5 21 52.5C20.5359 52.5 20.0908 52.3156 19.7626 51.9874C19.4344 51.6592 19.25 51.2141 19.25 50.75V45.5C19.25 45.0359 19.4344 44.5908 19.7626 44.2626C20.0908 43.9344 20.5359 43.75 21 43.75C21.4641 43.75 21.9092 43.9344 22.2374 44.2626C22.5656 44.5908 22.75 45.0359 22.75 45.5V45.5ZM31.5 38.5C31.5 38.0359 31.3156 37.5908 30.9874 37.2626C30.6592 36.9344 30.2141 36.75 29.75 36.75C29.2859 36.75 28.8408 36.9344 28.5126 37.2626C28.1844 37.5908 28 38.0359 28 38.5V50.75C28 51.2141 28.1844 51.6592 28.5126 51.9874C28.8408 52.3156 29.2859 52.5 29.75 52.5C30.2141 52.5 30.6592 52.3156 30.9874 51.9874C31.3156 51.6592 31.5 51.2141 31.5 50.75V38.5ZM38.5 40.25C38.9641 40.25 39.4092 40.4344 39.7374 40.7626C40.0656 41.0908 40.25 41.5359 40.25 42V50.75C40.25 51.2141 40.0656 51.6592 39.7374 51.9874C39.4092 52.3156 38.9641 52.5 38.5 52.5C38.0359 52.5 37.5908 52.3156 37.2626 51.9874C36.9344 51.6592 36.75 51.2141 36.75 50.75V42C36.75 41.5359 36.9344 41.0908 37.2626 40.7626C37.5908 40.4344 38.0359 40.25 38.5 40.25V40.25ZM49 33.25C49 32.7859 48.8156 32.3408 48.4874 32.0126C48.1592 31.6844 47.7141 31.5 47.25 31.5C46.7859 31.5 46.3408 31.6844 46.0126 32.0126C45.6844 32.3408 45.5 32.7859 45.5 33.25V50.75C45.5 51.2141 45.6844 51.6592 46.0126 51.9874C46.3408 52.3156 46.7859 52.5 47.25 52.5C47.7141 52.5 48.1592 52.3156 48.4874 51.9874C48.8156 51.6592 49 51.2141 49 50.75V33.25Z" fill="#185CFF"/>
<rect x="0.5" y="0.5" width="69" height="69" rx="11.5" stroke="#F1F6FA"/>
</svg>
