<svg width="70" height="70" viewBox="0 0 70 70" fill="none" xmlns="http://www.w3.org/2000/svg">
<path d="M33.6875 44.1875V45.5C33.6875 45.8481 33.5492 46.1819 33.3031 46.4281C33.0569 46.6742 32.7231 46.8125 32.375 46.8125H29.75V48.125C29.75 48.8212 29.4734 49.4889 28.9812 49.9812C28.4889 50.4734 27.8212 50.75 27.125 50.75H21.875C21.1788 50.75 20.5111 50.4734 20.0188 49.9812C19.5266 49.4889 19.25 48.8212 19.25 48.125V44.7309C19.2501 44.0347 19.5268 43.3672 20.0191 42.875L30.1753 32.7176C29.5521 30.6026 29.6105 28.3451 30.3423 26.2652C31.0741 24.1853 32.442 22.3885 34.2522 21.1297C36.0624 19.8708 38.2229 19.2137 40.4274 19.2515C42.632 19.2894 44.7687 20.0203 46.5345 21.3405C48.3004 22.6608 49.6059 24.5035 50.2658 26.6073C50.9258 28.7111 50.9067 30.9692 50.2113 33.0616C49.5159 35.1539 48.1795 36.9743 46.3915 38.2645C44.6036 39.5547 42.4549 40.2494 40.25 40.25H37.625V42.875C37.625 43.2231 37.4867 43.5569 37.2406 43.8031C36.9944 44.0492 36.6606 44.1875 36.3125 44.1875H33.6875ZM42.875 29.75C43.5712 29.75 44.2389 29.4734 44.7312 28.9812C45.2234 28.4889 45.5 27.8212 45.5 27.125C45.5 26.4288 45.2234 25.7611 44.7312 25.2688C44.2389 24.7766 43.5712 24.5 42.875 24.5C42.1788 24.5 41.5111 24.7766 41.0188 25.2688C40.5266 25.7611 40.25 26.4288 40.25 27.125C40.25 27.8212 40.5266 28.4889 41.0188 28.9812C41.5111 29.4734 42.1788 29.75 42.875 29.75Z" fill="#185CFF"/>
<rect x="0.5" y="0.5" width="69" height="69" rx="11.5" stroke="#F1F6FA"/>
</svg>
