<svg width="70" height="70" viewBox="0 0 70 70" fill="none" xmlns="http://www.w3.org/2000/svg">
<path d="M30.8055 22.547C31.9542 22.3832 32.8992 23.3408 32.8992 24.5V37.1H45.4992C46.6584 37.1 47.616 38.045 47.4522 39.1937C46.9141 42.866 45.0072 46.199 42.1141 48.5239C39.221 50.8488 35.5557 51.9936 31.8536 51.7286C28.1516 51.4637 24.6867 49.8085 22.1542 47.0953C19.6216 44.3821 18.2088 40.8115 18.1992 37.1C18.1994 33.5638 19.4739 30.1461 21.7892 27.4733C24.1045 24.8005 27.3055 23.0515 30.8055 22.547ZM49.8294 35C50.8752 35 51.7761 34.2314 51.7971 33.1856L51.7992 32.9C51.7993 30.9455 51.4096 29.0106 50.653 27.2085C49.8963 25.4063 48.7878 23.7732 47.3925 22.4046C45.9971 21.036 44.3428 19.9594 42.5263 19.2378C40.7099 18.5163 38.7678 18.1641 36.8136 18.2021C35.7678 18.2231 34.9992 19.1261 34.9992 20.1698V32.9C34.9992 33.457 35.2205 33.9911 35.6143 34.3849C36.0081 34.7788 36.5423 35 37.0992 35H49.8294Z" fill="#185CFF"/>
<rect x="0.5" y="0.5" width="69" height="69" rx="11.5" stroke="#F1F6FA"/>
</svg>
