<svg width="14" height="8" viewBox="0 0 14 8" fill="none" xmlns="http://www.w3.org/2000/svg">
<path d="M14 4.25001C14.0002 4.13723 13.9754 4.0258 13.9273 3.92377C13.8792 3.82174 13.8091 3.73165 13.722 3.66001L10.776 0.720015C10.6354 0.579564 10.4448 0.500674 10.246 0.500674C10.0472 0.500674 9.85662 0.579564 9.716 0.720015C9.64652 0.789476 9.5914 0.871945 9.55379 0.962712C9.51619 1.05348 9.49683 1.15077 9.49683 1.24901C9.49683 1.34726 9.51619 1.44455 9.55379 1.53532C9.5914 1.62608 9.64652 1.70855 9.716 1.77801L11.434 3.50001L0.75 3.50001C0.551087 3.50001 0.360322 3.57903 0.21967 3.71969C0.0790174 3.86034 -1.72649e-07 4.0511 -1.63954e-07 4.25001C-1.5526e-07 4.44893 0.0790174 4.63969 0.21967 4.78034C0.360322 4.921 0.551087 5.00001 0.75 5.00001L11.444 5.00001L9.711 6.72201C9.64137 6.79149 9.58612 6.87403 9.54843 6.96489C9.51073 7.05574 9.49133 7.15315 9.49133 7.25151C9.49133 7.34988 9.51073 7.44728 9.54843 7.53814C9.58612 7.629 9.64137 7.71153 9.711 7.78101C9.78065 7.85071 9.86335 7.906 9.95438 7.94372C10.0454 7.98144 10.143 8.00085 10.2415 8.00085C10.34 8.00085 10.4376 7.98144 10.5286 7.94372C10.6196 7.906 10.7023 7.85071 10.772 7.78101L13.78 4.77701C13.8502 4.70847 13.9059 4.62647 13.9437 4.53592C13.9815 4.44537 14.0006 4.34813 14 4.25001Z" fill="#185CFF"/>
</svg>
