<svg width="117" height="30" viewBox="0 0 117 30" fill="none" xmlns="http://www.w3.org/2000/svg">
<path d="M12.3424 20V9.92H16.5984C16.6964 9.92 16.827 9.92467 16.9904 9.934C17.1584 9.93867 17.3077 9.95267 17.4384 9.976C18.0404 10.0693 18.5327 10.2677 18.9154 10.571C19.3027 10.8743 19.5874 11.257 19.7694 11.719C19.9514 12.1763 20.0424 12.6873 20.0424 13.252C20.0424 13.8167 19.949 14.33 19.7624 14.792C19.5804 15.2493 19.2957 15.6297 18.9084 15.933C18.5257 16.2363 18.0357 16.4347 17.4384 16.528C17.3077 16.5467 17.1584 16.5607 16.9904 16.57C16.8224 16.5793 16.6917 16.584 16.5984 16.584H14.2464V20H12.3424ZM14.2464 14.806H16.5144C16.6124 14.806 16.7197 14.8013 16.8364 14.792C16.953 14.7827 17.0604 14.764 17.1584 14.736C17.415 14.666 17.6134 14.5493 17.7534 14.386C17.8934 14.218 17.989 14.0337 18.0404 13.833C18.0964 13.6277 18.1244 13.434 18.1244 13.252C18.1244 13.07 18.0964 12.8787 18.0404 12.678C17.989 12.4727 17.8934 12.2883 17.7534 12.125C17.6134 11.957 17.415 11.838 17.1584 11.768C17.0604 11.74 16.953 11.7213 16.8364 11.712C16.7197 11.7027 16.6124 11.698 16.5144 11.698H14.2464V14.806ZM21.2379 20V12.44H22.9179V14.288L22.7359 14.05C22.8339 13.7887 22.9645 13.5507 23.1279 13.336C23.2912 13.1213 23.4919 12.944 23.7299 12.804C23.9119 12.692 24.1102 12.6057 24.3249 12.545C24.5395 12.4797 24.7612 12.44 24.9899 12.426C25.2185 12.4073 25.4472 12.412 25.6759 12.44V14.218C25.4659 14.1527 25.2209 14.1317 24.9409 14.155C24.6655 14.1737 24.4159 14.2367 24.1919 14.344C23.9679 14.4467 23.7789 14.5843 23.6249 14.757C23.4709 14.925 23.3542 15.1257 23.2749 15.359C23.1955 15.5877 23.1559 15.8467 23.1559 16.136V20H21.2379ZM30.0627 20.21C29.302 20.21 28.6347 20.0397 28.0607 19.699C27.4867 19.3583 27.0387 18.8893 26.7167 18.292C26.3993 17.69 26.2407 16.9993 26.2407 16.22C26.2407 15.4313 26.404 14.7383 26.7307 14.141C27.0573 13.539 27.5077 13.07 28.0817 12.734C28.6557 12.398 29.316 12.23 30.0627 12.23C30.8233 12.23 31.4907 12.4003 32.0647 12.741C32.6433 13.0817 33.0937 13.553 33.4157 14.155C33.7377 14.7523 33.8987 15.4407 33.8987 16.22C33.8987 17.004 33.7353 17.697 33.4087 18.299C33.0867 18.8963 32.6363 19.3653 32.0577 19.706C31.4837 20.042 30.8187 20.21 30.0627 20.21ZM30.0627 18.432C30.674 18.432 31.129 18.2267 31.4277 17.816C31.731 17.4007 31.8827 16.8687 31.8827 16.22C31.8827 15.548 31.7287 15.0113 31.4207 14.61C31.1173 14.2087 30.6647 14.008 30.0627 14.008C29.6473 14.008 29.3067 14.1013 29.0407 14.288C28.7747 14.4747 28.5763 14.7337 28.4457 15.065C28.3197 15.3963 28.2567 15.7813 28.2567 16.22C28.2567 16.8967 28.4083 17.4357 28.7117 17.837C29.0197 18.2337 29.47 18.432 30.0627 18.432ZM34.1146 20L36.8166 16.178L34.1706 12.44H36.4106L37.9226 14.68L39.4066 12.44H41.6466L39.0006 16.178L41.7166 20H39.4766L37.9226 17.676L36.3546 20H34.1146ZM43.5992 23.36L45.0552 19.356L45.0832 20.532L41.7932 12.44H43.7672L45.9792 18.166H45.5312L47.7292 12.44H49.6332L45.3632 23.36H43.5992Z" fill="#185CFF"/>
<rect x="0.5" y="0.5" width="60" height="29" rx="5.5" stroke="#F1F6FA"/>
<path d="M80.6344 20L77.5544 9.92H79.5144L82.0344 18.208L84.5964 9.92H86.5564L83.4764 20H80.6344ZM87.4009 20V9.92H91.6569C91.7549 9.92 91.8856 9.92467 92.0489 9.934C92.2169 9.93867 92.3662 9.95267 92.4969 9.976C93.0989 10.0693 93.5912 10.2677 93.9739 10.571C94.3612 10.8743 94.6459 11.257 94.8279 11.719C95.0099 12.1763 95.1009 12.6873 95.1009 13.252C95.1009 13.8167 95.0076 14.33 94.8209 14.792C94.6389 15.2493 94.3542 15.6297 93.9669 15.933C93.5842 16.2363 93.0942 16.4347 92.4969 16.528C92.3662 16.5467 92.2169 16.5607 92.0489 16.57C91.8809 16.5793 91.7502 16.584 91.6569 16.584H89.3049V20H87.4009ZM89.3049 14.806H91.5729C91.6709 14.806 91.7782 14.8013 91.8949 14.792C92.0116 14.7827 92.1189 14.764 92.2169 14.736C92.4736 14.666 92.6719 14.5493 92.8119 14.386C92.9519 14.218 93.0476 14.0337 93.0989 13.833C93.1549 13.6277 93.1829 13.434 93.1829 13.252C93.1829 13.07 93.1549 12.8787 93.0989 12.678C93.0476 12.4727 92.9519 12.2883 92.8119 12.125C92.6719 11.957 92.4736 11.838 92.2169 11.768C92.1189 11.74 92.0116 11.7213 91.8949 11.712C91.7782 11.7027 91.6709 11.698 91.5729 11.698H89.3049V14.806ZM96.2964 20V9.92H98.2284L102.61 16.64V9.92H104.542V20H102.61L98.2284 13.28V20H96.2964Z" fill="#185CFF"/>
<rect x="66.5" y="0.5" width="50" height="29" rx="5.5" stroke="#F1F6FA"/>
</svg>
