<svg width="70" height="70" viewBox="0 0 70 70" fill="none" xmlns="http://www.w3.org/2000/svg">
<path d="M26.8722 19.8653C28.3044 18.7807 30.0527 18.1957 31.8492 18.2C32.3532 18.2 32.7543 18.4625 32.9874 18.6431C33.2478 18.8489 33.4914 19.1114 33.7098 19.3739C33.8647 19.562 33.9493 19.798 33.9492 20.0417V27.65H31.6707C31.423 26.9494 30.9356 26.3589 30.2947 25.983C29.6538 25.607 28.9006 25.4697 28.1682 25.5953C27.4358 25.721 26.7715 26.1015 26.2925 26.6696C25.8136 27.2378 25.5509 27.9569 25.5509 28.7C25.5509 29.443 25.8136 30.1622 26.2925 30.7303C26.7715 31.2984 27.4358 31.679 28.1682 31.8046C28.9006 31.9303 29.6538 31.793 30.2947 31.417C30.9356 31.041 31.423 30.4506 31.6707 29.75H33.9492V49.5215C33.9493 49.6769 33.9149 49.8305 33.8484 49.971C33.782 50.1116 33.6851 50.2356 33.5649 50.3342C32.5947 51.128 31.2969 51.8 29.7492 51.8C27.2586 51.8 25.4043 50.5442 24.2052 49.0427C23.3437 47.9729 22.7536 46.7106 22.4853 45.3635C21.6694 45.1459 20.9129 44.7476 20.2719 44.198C19.1127 43.2047 18.1992 41.594 18.1992 39.2C18.1992 38.0303 18.2769 36.974 18.4512 36.05H25.0242C26.3598 36.05 27.4602 37.0475 27.6282 38.3369C26.9299 38.5896 26.3433 39.081 25.972 39.7242C25.6007 40.3674 25.4687 41.1212 25.5992 41.8523C25.7296 42.5834 26.1143 43.2449 26.6851 43.72C27.2559 44.1951 27.9763 44.4533 28.719 44.4488C29.4617 44.4444 30.1789 44.1777 30.744 43.6958C31.3091 43.2139 31.6858 42.5478 31.8076 41.8152C31.9293 41.0826 31.7882 40.3305 31.4093 39.6917C31.0304 39.053 30.438 38.5686 29.7366 38.3243C29.6481 37.1351 29.1132 36.0233 28.2392 35.212C27.3652 34.4007 26.2167 33.9499 25.0242 33.95H19.1253C19.4466 33.3242 19.8771 32.795 20.4378 32.4191C20.5796 32.3252 20.7285 32.2423 20.883 32.1713C20.2866 30.4241 20.442 28.3787 21.0174 26.7722C21.3849 25.739 21.9687 24.7625 22.7709 24.1115C23.3001 23.681 23.9301 23.3975 24.6189 23.3429C24.9213 21.9086 25.7718 20.7221 26.8743 19.8653H26.8722ZM36.0492 44.45H37.6242C38.8774 44.45 40.0792 43.9522 40.9653 43.0661C41.8514 42.1799 42.3492 40.9781 42.3492 39.725V35.8715C43.0498 35.6238 43.6402 35.1364 44.0162 34.4955C44.3922 33.8545 44.5295 33.1013 44.4039 32.369C44.2782 31.6366 43.8977 30.9722 43.3296 30.4933C42.7614 30.0143 42.0423 29.7516 41.2992 29.7516C40.5561 29.7516 39.837 30.0143 39.2689 30.4933C38.7008 30.9722 38.3202 31.6366 38.1946 32.369C38.0689 33.1013 38.2062 33.8545 38.5822 34.4955C38.9582 35.1364 39.5486 35.6238 40.2492 35.8715V39.725C40.2492 41.174 39.0732 42.35 37.6242 42.35H36.0492V20.0417C36.0491 19.798 36.1338 19.562 36.2886 19.3739C36.5049 19.1114 36.7506 18.8489 37.011 18.6431C37.242 18.4625 37.6431 18.2 38.1492 18.2C39.9457 18.1957 41.6941 18.7807 43.1262 19.8653C44.2287 20.7221 45.0792 21.9086 45.3795 23.3429C46.0683 23.3954 46.6983 23.681 47.2275 24.1115C48.0297 24.7625 48.6135 25.739 48.981 26.7722C49.5564 28.3787 49.7118 30.4262 49.1154 32.1692C49.2666 32.2406 49.4157 32.3246 49.5606 32.4212C50.1381 32.8055 50.577 33.3557 50.9004 34.0046C51.5367 35.2751 51.7992 37.0475 51.7992 39.2C51.7992 41.5961 50.8857 43.2047 49.7265 44.198C49.0855 44.7476 48.329 45.1459 47.5131 45.3635C47.3031 46.5353 46.7151 47.8919 45.7932 49.0427C44.5962 50.5442 42.7398 51.8 40.2492 51.8C38.7036 51.8 37.4037 51.128 36.4356 50.3342C36.315 50.2358 36.2178 50.1119 36.1509 49.9713C36.0841 49.8308 36.0494 49.6771 36.0492 49.5215V44.45ZM28.6992 27.65C28.4207 27.65 28.1537 27.7606 27.9568 27.9575C27.7598 28.1544 27.6492 28.4215 27.6492 28.7C27.6492 28.9785 27.7598 29.2455 27.9568 29.4424C28.1537 29.6394 28.4207 29.75 28.6992 29.75C28.9777 29.75 29.2448 29.6394 29.4417 29.4424C29.6386 29.2455 29.7492 28.9785 29.7492 28.7C29.7492 28.4215 29.6386 28.1544 29.4417 27.9575C29.2448 27.7606 28.9777 27.65 28.6992 27.65ZM28.6992 40.25C28.4207 40.25 28.1537 40.3606 27.9568 40.5575C27.7598 40.7544 27.6492 41.0215 27.6492 41.3C27.6492 41.5785 27.7598 41.8455 27.9568 42.0424C28.1537 42.2394 28.4207 42.35 28.6992 42.35C28.9777 42.35 29.2448 42.2394 29.4417 42.0424C29.6386 41.8455 29.7492 41.5785 29.7492 41.3C29.7492 41.0215 29.6386 40.7544 29.4417 40.5575C29.2448 40.3606 28.9777 40.25 28.6992 40.25ZM41.2992 33.95C41.5777 33.95 41.8448 33.8394 42.0417 33.6424C42.2386 33.4455 42.3492 33.1785 42.3492 32.9C42.3492 32.6215 42.2386 32.3544 42.0417 32.1575C41.8448 31.9606 41.5777 31.85 41.2992 31.85C41.0207 31.85 40.7537 31.9606 40.5568 32.1575C40.3598 32.3544 40.2492 32.6215 40.2492 32.9C40.2492 33.1785 40.3598 33.4455 40.5568 33.6424C40.7537 33.8394 41.0207 33.95 41.2992 33.95Z" fill="#185CFF"/>
<rect x="0.5" y="0.5" width="69" height="69" rx="11.5" stroke="#F1F6FA"/>
</svg>
