<svg width="70" height="70" viewBox="0 0 70 70" fill="none" xmlns="http://www.w3.org/2000/svg">
<path d="M33.6875 44.1875V45.5C33.6875 45.8481 33.5492 46.1819 33.3031 46.4281C33.0569 46.6742 32.7231 46.8125 32.375 46.8125H29.75V48.125C29.75 48.8212 29.4734 49.4889 28.9812 49.9812C28.4889 50.4734 27.8212 50.75 27.125 50.75H21.875C21.1788 50.75 20.5111 50.4734 20.0188 49.9812C19.5266 49.4889 19.25 48.8212 19.25 48.125V44.7309C19.2501 44.0347 19.5268 43.3672 20.0191 42.875L30.1779 32.7163C29.555 30.6011 29.6137 28.3436 30.3458 26.2637C31.0779 24.1839 32.4462 22.3873 34.2567 21.1287C36.0671 19.87 38.2278 19.2133 40.4324 19.2516C42.637 19.2899 44.7736 20.0212 46.5393 21.3419C48.305 22.6625 49.6101 24.5055 50.2695 26.6096C50.929 28.7136 50.9094 30.9718 50.2135 33.064C49.5175 35.1563 48.1806 36.9763 46.3923 38.2661C44.6039 39.5559 42.4549 40.25 40.25 40.25H37.6224V42.875C37.6224 43.2231 37.4841 43.5569 37.238 43.8031C36.9918 44.0492 36.658 44.1875 36.3099 44.1875H33.6849H33.6875ZM42.875 29.75C43.5712 29.75 44.2389 29.4734 44.7312 28.9812C45.2234 28.4889 45.5 27.8212 45.5 27.125C45.5 26.4288 45.2234 25.7611 44.7312 25.2688C44.2389 24.7766 43.5712 24.5 42.875 24.5C42.1788 24.5 41.5111 24.7766 41.0188 25.2688C40.5266 25.7611 40.25 26.4288 40.25 27.125C40.25 27.8212 40.5266 28.4889 41.0188 28.9812C41.5111 29.4734 42.1788 29.75 42.875 29.75Z" fill="#185CFF"/>
<rect x="0.5" y="0.5" width="69" height="69" rx="11.5" stroke="#F1F6FA"/>
</svg>
