<svg width="70" height="70" viewBox="0 0 70 70" fill="none" xmlns="http://www.w3.org/2000/svg">
<path d="M43.3991 19.775C43.3991 19.3572 43.565 18.9566 43.8604 18.6613C44.1557 18.3659 44.5563 18.2 44.9741 18.2H50.2241C50.6418 18.2 51.0424 18.3659 51.3377 18.6613C51.6331 18.9566 51.7991 19.3572 51.7991 19.775V25.025C51.7991 25.4427 51.6331 25.8433 51.3377 26.1386C51.0424 26.434 50.6418 26.6 50.2241 26.6C49.8063 26.6 49.4057 26.434 49.1104 26.1386C48.815 25.8433 48.6491 25.4427 48.6491 25.025V23.576L39.2621 32.9629C38.9667 33.2579 38.5664 33.4236 38.1491 33.4236C37.7317 33.4236 37.3314 33.2579 37.0361 32.9629L31.8491 27.776L22.9871 36.6379C22.8429 36.7927 22.669 36.9168 22.4758 37.0029C22.2826 37.089 22.074 37.1353 21.8626 37.139C21.6511 37.1427 21.441 37.1038 21.2449 37.0246C21.0488 36.9454 20.8706 36.8275 20.7211 36.6779C20.5715 36.5284 20.4536 36.3502 20.3744 36.1541C20.2952 35.958 20.2563 35.7479 20.26 35.5365C20.2637 35.325 20.31 35.1164 20.3961 34.9232C20.4822 34.73 20.6063 34.5561 20.7611 34.412L30.7361 24.437C31.0314 24.142 31.4317 23.9763 31.8491 23.9763C32.2664 23.9763 32.6667 24.142 32.9621 24.437L38.1491 29.624L46.423 21.35H44.9741C44.5563 21.35 44.1557 21.184 43.8604 20.8886C43.565 20.5933 43.3991 20.1927 43.3991 19.775ZM21.8741 43.4C22.2918 43.4 22.6924 43.5659 22.9877 43.8613C23.2831 44.1566 23.4491 44.5572 23.4491 44.975V50.2249C23.4491 50.6427 23.2831 51.0433 22.9877 51.3386C22.6924 51.634 22.2918 51.7999 21.8741 51.7999C21.4563 51.7999 21.0557 51.634 20.7604 51.3386C20.465 51.0433 20.2991 50.6427 20.2991 50.2249V44.975C20.2991 44.5572 20.465 44.1566 20.7604 43.8613C21.0557 43.5659 21.4563 43.4 21.8741 43.4ZM31.8491 38.6749C31.8491 38.2572 31.6831 37.8566 31.3877 37.5613C31.0924 37.2659 30.6918 37.1 30.2741 37.1C29.8563 37.1 29.4557 37.2659 29.1604 37.5613C28.865 37.8566 28.6991 38.2572 28.6991 38.6749V50.2249C28.6991 50.6427 28.865 51.0433 29.1604 51.3386C29.4557 51.634 29.8563 51.7999 30.2741 51.7999C30.6918 51.7999 31.0924 51.634 31.3877 51.3386C31.6831 51.0433 31.8491 50.6427 31.8491 50.2249V38.6749ZM38.6741 41.2999C39.0918 41.2999 39.4924 41.4659 39.7877 41.7613C40.0831 42.0566 40.2491 42.4572 40.2491 42.875V50.2249C40.2491 50.6427 40.0831 51.0433 39.7877 51.3386C39.4924 51.634 39.0918 51.7999 38.6741 51.7999C38.2563 51.7999 37.8557 51.634 37.5604 51.3386C37.265 51.0433 37.0991 50.6427 37.0991 50.2249V42.875C37.0991 42.4572 37.265 42.0566 37.5604 41.7613C37.8557 41.4659 38.2563 41.2999 38.6741 41.2999ZM48.6491 34.475C48.6491 34.0572 48.4831 33.6566 48.1877 33.3613C47.8924 33.0659 47.4918 32.9 47.0741 32.9C46.6563 32.9 46.2557 33.0659 45.9604 33.3613C45.665 33.6566 45.4991 34.0572 45.4991 34.475V50.2249C45.4991 50.6427 45.665 51.0433 45.9604 51.3386C46.2557 51.634 46.6563 51.7999 47.0741 51.7999C47.4918 51.7999 47.8924 51.634 48.1877 51.3386C48.4831 51.0433 48.6491 50.6427 48.6491 50.2249V34.475Z" fill="#185CFF"/>
<rect x="0.5" y="0.5" width="69" height="69" rx="11.5" stroke="#F1F6FA"/>
</svg>
